# xmcd
#
# Track frame offsets:
#	150
#	15394
#	30054
#	47850
#	60429
#	75902
#	88600
#	101228
#	113779
#	125936
#	148747
#	163835
#	178407
#	196035
#	207737
#	221627
#
# Disc length: 3209 seconds
#
# Revision: 0
# Processed by: cddbd v1.5.2PL0 Copyright (c) Steve Scherf et al.
# Submitted via: dBpowerAMP V4.0
#
DISCID=e10c8710
DTITLE=LÉO MAGALHÃES - LÉO MAGALHÃES
DYEAR=2007
DGENRE=Country
TTITLE0=1
TTITLE1=2
TTITLE2=3
TTITLE3=4
TTITLE4=5
TTITLE5=6
TTITLE6=7
TTITLE7=8
TTITLE8=9
TTITLE9=10
TTITLE10=11
TTITLE11=12
TTITLE12=13
TTITLE13=14
TTITLE14=15
TTITLE15=16
EXTD=LÉO MAGALHÃES
EXTT0=
EXTT1=
EXTT2=
EXTT3=
EXTT4=
EXTT5=
EXTT6=
EXTT7=
EXTT8=
EXTT9=
EXTT10=
EXTT11=
EXTT12=
EXTT13=
EXTT14=
EXTT15=
PLAYORDER=
